<?xml version="1.0" standalone="no"?>
<!DOCTYPE svg PUBLIC "-//W3C//DTD SVG 1.1//EN" 
"http://www.w3.org/Graphics/SVG/1.1/DTD/svg11.dtd">

<svg xmlns="http://www.w3.org/2000/svg" version="1.1" viewBox="0 0 730 230 ">
	<rect x="0" y="0" width="730" height="230" fill="#000000"/>
<g fill="#ffffff">
	<rect x="000" y="010" width="010" height="010" />
	<rect x="020" y="010" width="010" height="010" />	
	<rect x="040" y="010" width="010" height="010" />
	<rect x="060" y="000" width="010" height="020" />
	<rect x="080" y="000" width="010" height="020" />
	<rect x="100" y="000" width="010" height="020" />
	<rect x="120" y="000" width="010" height="010" />
	<rect x="130" y="010" width="010" height="010" />
	<rect x="160" y="010" width="010" height="010" />
	<rect x="250" y="000" width="010" height="010" />
	<rect x="270" y="000" width="010" height="010" />
	<rect x="330" y="000" width="010" height="010" />
	<rect x="350" y="000" width="010" height="010" />
	<rect x="430" y="000" width="010" height="010" />
	<rect x="460" y="000" width="010" height="010" />
	<rect x="500" y="000" width="010" height="010" />
	<rect x="540" y="000" width="010" height="010" />
	<rect x="580" y="000" width="010" height="010" />
	<rect x="610" y="000" width="010" height="010" />
	<rect x="630" y="000" width="020" height="010" />
	<rect x="670" y="000" width="010" height="010" />
	<rect x="690" y="000" width="010" height="010" />
	<rect x="710" y="000" width="010" height="010" />
</g>
<g fill="#ac0fc6">
	<rect x="000" y="030" width="020" height="010" />
	<rect x="020" y="020" width="020" height="010" />
	<rect x="050" y="020" width="010" height="010" />
	<rect x="250" y="020" width="020" height="010" />
	<rect x="280" y="020" width="010" height="010" />
	<rect x="470" y="020" width="010" height="010" />
	<rect x="490" y="020" width="010" height="010" />
	<rect x="510" y="020" width="010" height="010" />
	<rect x="540" y="010" width="020" height="010" />
	<rect x="700" y="020" width="030" height="010" />
</g>
<g fill="#10ce0e">
	<rect x="000" y="060" width="040" height="010" />
	<rect x="020" y="040" width="010" height="010" />
	<rect x="030" y="070" width="010" height="010" />
	<rect x="060" y="050" width="010" height="010" />
	<rect x="070" y="040" width="020" height="010" />
	<rect x="100" y="040" width="010" height="010" />
	<rect x="090" y="090" width="060" height="010" />
	<rect x="130" y="070" width="010" height="010" />
	<rect x="140" y="040" width="020" height="010" />
	<rect x="170" y="060" width="050" height="010" />
	<rect x="180" y="070" width="020" height="010" />
	<rect x="170" y="080" width="010" height="010" />
	<rect x="190" y="040" width="020" height="010" />
	<rect x="210" y="070" width="010" height="010" />
	<rect x="240" y="050" width="010" height="010" />
	<rect x="250" y="040" width="020" height="010" />
	<rect x="260" y="070" width="020" height="010" />
	<rect x="280" y="040" width="010" height="010" />
	<rect x="280" y="090" width="050" height="010" />
	<rect x="300" y="040" width="050" height="010" />
	<rect x="310" y="070" width="030" height="010" />
	<rect x="340" y="030" width="020" height="010" />
	<rect x="350" y="080" width="010" height="010" />
	<rect x="360" y="070" width="020" height="010" />
	<rect x="360" y="040" width="050" height="010" />
	<rect x="390" y="070" width="010" height="010" />
	<rect x="400" y="030" width="030" height="010" />
	<rect x="410" y="070" width="050" height="010" />
	<rect x="420" y="040" width="050" height="010" />
	<rect x="450" y="060" width="020" height="010" />
	<rect x="460" y="030" width="020" height="010" />
	<rect x="470" y="070" width="050" height="010" />
	<rect x="480" y="040" width="050" height="010" />
	<rect x="510" y="060" width="020" height="010" />
	<rect x="520" y="030" width="020" height="010" />
	<rect x="530" y="070" width="050" height="010" />
	<rect x="530" y="050" width="010" height="010" />
	<rect x="570" y="030" width="010" height="010" />
	<rect x="570" y="060" width="030" height="010" />
	<rect x="590" y="070" width="050" height="010" />
	<rect x="630" y="060" width="020" height="010" />
	<rect x="640" y="080" width="010" height="010" />
	<rect x="680" y="060" width="010" height="010" />
	<rect x="710" y="030" width="020" height="010" />
	<rect x="710" y="050" width="020" height="010" />
</g>
<g fill="#ffffff">
	<rect x="000" y="160" width="010" height="010" />
	<rect x="020" y="160" width="030" height="010" />
	<rect x="050" y="130" width="010" height="010" />
	<rect x="080" y="120" width="010" height="010" />
	<rect x="120" y="110" width="020" height="010" />
	<rect x="160" y="100" width="020" height="010" />
	<rect x="200" y="090" width="020" height="010" />
	<rect x="240" y="080" width="020" height="010" />
	<rect x="220" y="160" width="030" height="010" />
	<rect x="250" y="150" width="010" height="010" />
	<rect x="260" y="160" width="020" height="010" />
	<rect x="270" y="150" width="020" height="010" />
	<rect x="270" y="130" width="010" height="010" />
	<rect x="300" y="150" width="020" height="010" />
	<rect x="310" y="120" width="020" height="010" />
	<rect x="360" y="110" width="010" height="010" />
	<rect x="390" y="100" width="020" height="010" />
	<rect x="430" y="090" width="020" height="010" />
	<rect x="470" y="080" width="020" height="010" />
	<rect x="450" y="160" width="060" height="010" />
	<rect x="490" y="150" width="070" height="010" />
	<rect x="570" y="150" width="030" height="010" />
	<rect x="540" y="120" width="020" height="010" />
	<rect x="570" y="220" width="050" height="010" />
	<rect x="630" y="220" width="010" height="010" />
	<rect x="580" y="110" width="020" height="010" />
	<rect x="630" y="100" width="010" height="010" />
	<rect x="670" y="090" width="010" height="010" />
	<rect x="700" y="080" width="020" height="010" />
	<rect x="680" y="160" width="020" height="010" />
	<rect x="720" y="150" width="020" height="010" />
	<rect x="340" y="220" width="010" height="010" />
	<rect x="370" y="220" width="010" height="010" />
	<rect x="390" y="220" width="010" height="010" />
</g>
<g fill="#ebf710">
	<rect x="000" y="180" width="020" height="010" />
	<rect x="030" y="180" width="010" height="010" />
	<rect x="050" y="180" width="010" height="010" />
	<rect x="090" y="180" width="010" height="010" />
	<rect x="110" y="180" width="010" height="010" />
	<rect x="130" y="180" width="010" height="010" />
	<rect x="150" y="180" width="010" height="010" />
	<rect x="170" y="180" width="010" height="010" />
	<rect x="190" y="180" width="010" height="010" />
	<rect x="220" y="180" width="030" height="010" />
	<rect x="340" y="180" width="010" height="010" />
	<rect x="360" y="180" width="010" height="010" />
	<rect x="380" y="180" width="010" height="010" />
	<rect x="400" y="180" width="010" height="010" />
	<rect x="490" y="170" width="030" height="010" />
	<rect x="570" y="170" width="010" height="020" />
	<rect x="590" y="180" width="010" height="010" />
	<rect x="720" y="170" width="010" height="010" />
</g>
<g fill="#ac0fc6">
	<rect x="000" y="210" width="010" height="010" />
	<rect x="010" y="190" width="050" height="010" />
	<rect x="040" y="210" width="010" height="010" />
	<rect x="050" y="200" width="020" height="010" />
	<rect x="090" y="210" width="010" height="020" />
	<rect x="130" y="210" width="010" height="010" />
	<rect x="140" y="200" width="020" height="010" />
	<rect x="160" y="210" width="010" height="010" />
	<rect x="170" y="200" width="010" height="010" />
	<rect x="190" y="220" width="010" height="010" />
	<rect x="200" y="210" width="010" height="010" />
	<rect x="220" y="190" width="090" height="010" />
	<rect x="230" y="210" width="010" height="010" />
	<rect x="270" y="200" width="010" height="020" />
	<rect x="290" y="200" width="020" height="010" />
	<rect x="360" y="200" width="010" height="020" />
	<rect x="370" y="200" width="010" height="010" />
	<rect x="400" y="200" width="020" height="010" />
	<rect x="400" y="210" width="010" height="010" />
	<rect x="420" y="210" width="010" height="010" />
	<rect x="430" y="190" width="030" height="010" />
	<rect x="460" y="210" width="010" height="010" />
	<rect x="490" y="200" width="020" height="010" />
	<rect x="530" y="200" width="020" height="010" />
	<rect x="530" y="190" width="030" height="010" />
	<rect x="590" y="200" width="010" height="020" />
	<rect x="630" y="200" width="010" height="010" />
	<rect x="640" y="210" width="010" height="010" />
	<rect x="650" y="200" width="010" height="010" />
	<rect x="650" y="190" width="020" height="010" />
	<rect x="690" y="210" width="010" height="010" />
	<rect x="710" y="200" width="010" height="010" />
</g>
<g fill="#dd0717">
	<rect x="090" y="170" width="020" height="010" />
	<rect x="120" y="170" width="020" height="010" />
	<rect x="140" y="160" width="010" height="010" />
	<rect x="160" y="150" width="010" height="020" />
	<rect x="180" y="150" width="030" height="010" />
	<rect x="220" y="150" width="010" height="010" />
	<rect x="230" y="140" width="010" height="010" />
	<rect x="370" y="160" width="010" height="010" />
	<rect x="380" y="150" width="010" height="010" />
	<rect x="390" y="160" width="010" height="010" />
	<rect x="410" y="150" width="030" height="010" />
	<rect x="460" y="140" width="010" height="020" />
	<rect x="600" y="160" width="010" height="010" />
	<rect x="620" y="160" width="010" height="010" />
	<rect x="640" y="150" width="030" height="010" />
	<rect x="670" y="140" width="050" height="010" />
</g>
<g fill="#0e72ff">
	<rect x="010" y="120" width="010" height="010" />
	<rect x="030" y="100" width="010" height="010" />
	<rect x="030" y="170" width="010" height="010" />
	<rect x="040" y="140" width="020" height="010" />
	<rect x="090" y="100" width="010" height="010" />
	<rect x="110" y="150" width="010" height="010" />
	<rect x="130" y="130" width="010" height="010" />
	<rect x="150" y="140" width="010" height="010" />
	<rect x="160" y="110" width="020" height="010" />
	<rect x="170" y="120" width="010" height="010" />
	<rect x="190" y="130" width="010" height="010" />
	<rect x="190" y="140" width="030" height="010" />
	<rect x="230" y="120" width="010" height="010" />
	<rect x="250" y="100" width="010" height="010" />
	<rect x="250" y="140" width="020" height="010" />
	<rect x="300" y="160" width="010" height="010" />
	<rect x="310" y="110" width="020" height="010" />
	<rect x="330" y="100" width="020" height="010" />
	<rect x="350" y="130" width="010" height="010" />
	<rect x="380" y="140" width="010" height="010" />
	<rect x="410" y="110" width="020" height="010" />
	<rect x="410" y="120" width="010" height="010" />
	<rect x="430" y="130" width="010" height="010" />
	<rect x="450" y="120" width="010" height="010" />
	<rect x="470" y="100" width="010" height="010" />
	<rect x="510" y="220" width="040" height="010" />
	<rect x="520" y="110" width="020" height="010" />
	<rect x="530" y="160" width="010" height="010" />
	<rect x="560" y="130" width="020" height="010" />
	<rect x="580" y="090" width="010" height="010" />
	<rect x="580" y="100" width="020" height="010" />
	<rect x="610" y="140" width="010" height="010" />
	<rect x="640" y="120" width="010" height="010" />
	<rect x="660" y="220" width="040" height="010" />
	<rect x="660" y="110" width="010" height="010" />
	<rect x="670" y="130" width="010" height="010" />
	<rect x="680" y="120" width="010" height="020" />
	<rect x="680" y="100" width="020" height="010" />


</g>
	<path stroke="#202020" d="M0,0
l0,230 m10,-230 l0,230 m10,-230 l0,230 m10,-230 l0,230 m10,-230 l0,230 m10,-230 
l0,230 m10,-230 l0,230 m10,-230 l0,230 m10,-230 l0,230 m10,-230 l0,230 m10,-230 
l0,230 m10,-230 l0,230 m10,-230 l0,230 m10,-230 l0,230 m10,-230 l0,230 m10,-230 
l0,230 m10,-230 l0,230 m10,-230 l0,230 m10,-230 l0,230 m10,-230 l0,230 m10,-230 
l0,230 m10,-230 l0,230 m10,-230 l0,230 m10,-230 l0,230 m10,-230 l0,230 m10,-230 
l0,230 m10,-230 l0,230 m10,-230 l0,230 m10,-230 l0,230 m10,-230 l0,230 m10,-230 
l0,230 m10,-230 l0,230 m10,-230 l0,230 m10,-230 l0,230 m10,-230 l0,230 m10,-230 
l0,230 m10,-230 l0,230 m10,-230 l0,230 m10,-230 l0,230 m10,-230 l0,230 m10,-230 
l0,230 m10,-230 l0,230 m10,-230 l0,230 m10,-230 l0,230 m10,-230 l0,230 m10,-230 
l0,230 m10,-230 l0,230 m10,-230 l0,230 m10,-230 l0,230 m10,-230 l0,230 m10,-230 
l0,230 m10,-230 l0,230 m10,-230 l0,230 m10,-230 l0,230 m10,-230 l0,230 m10,-230 
l0,230 m10,-230 l0,230 m10,-230 l0,230 m10,-230 l0,230 m10,-230 l0,230 m10,-230 
l0,230 m10,-230 l0,230 m10,-230 l0,230 m10,-230 l0,230 m10,-230 l0,230 m10,-230 
l0,230 m10,-230 l0,230 m10,-230 l0,230 m10,-230 l0,230 m10,-230 l0,230 m10,-230 
l0,230 m10,-230 l0,230 m10,-230 l0,230 m10,-230 l0,230 m10,-230 
	"/>
	<path stroke="#202020" d="M0,0
l730,0 m-730,10 l730,0 m-730,10 l730,0 m-730,10 l730,0 m-730,10 l730,0 m-730,10 
l730,0 m-730,10 l730,0 m-730,10 l730,0 m-730,10 l730,0 m-730,10 l730,0 m-730,10 
l730,0 m-730,10 l730,0 m-730,10 l730,0 m-730,10 l730,0 m-730,10 l730,0 m-730,10 
l730,0 m-730,10 l730,0 m-730,10 l730,0 m-730,10 l730,0 m-730,10 l730,0 m-730,10 
l730,0 m-730,10 l730,0 m-730,10 l730,0 m-730,10 l730,0 m-730,10 
	"/>
	
</svg>  